<mxfile host="app.diagrams.net" modified="2023-12-24T10:29:39.168Z" agent="Mozilla/5.0 (Windows NT 10.0; Win64; x64) AppleWebKit/537.36 (KHTML, like Gecko) Chrome/120.0.0.0 Safari/537.36" etag="ldPBdiYNBCNC7Q7KHWFW" version="22.1.11" type="device">
  <diagram name="Страница — 1" id="plNuW0Nkim01TFoeZJz1">
    <mxGraphModel dx="880" dy="434" grid="1" gridSize="10" guides="1" tooltips="1" connect="1" arrows="1" fold="1" page="1" pageScale="1" pageWidth="827" pageHeight="1169" math="0" shadow="0">
      <root>
        <mxCell id="0" />
        <mxCell id="1" parent="0" />
        <mxCell id="X_bwyAX8eqqR_9mY6h3H-3" value="" style="edgeStyle=orthogonalEdgeStyle;rounded=0;orthogonalLoop=1;jettySize=auto;html=1;" edge="1" parent="1" source="X_bwyAX8eqqR_9mY6h3H-1" target="X_bwyAX8eqqR_9mY6h3H-2">
          <mxGeometry relative="1" as="geometry" />
        </mxCell>
        <mxCell id="X_bwyAX8eqqR_9mY6h3H-1" value="Start" style="ellipse;whiteSpace=wrap;html=1;" vertex="1" parent="1">
          <mxGeometry x="310" y="30" width="120" height="30" as="geometry" />
        </mxCell>
        <mxCell id="X_bwyAX8eqqR_9mY6h3H-5" value="" style="edgeStyle=orthogonalEdgeStyle;rounded=0;orthogonalLoop=1;jettySize=auto;html=1;" edge="1" parent="1" source="X_bwyAX8eqqR_9mY6h3H-2" target="X_bwyAX8eqqR_9mY6h3H-4">
          <mxGeometry relative="1" as="geometry" />
        </mxCell>
        <mxCell id="X_bwyAX8eqqR_9mY6h3H-2" value="array[]={Введите элементы массива через пробел:&lt;span style=&quot;background-color: initial;&quot;&gt;}:&lt;br&gt;&lt;/span&gt;" style="shape=parallelogram;perimeter=parallelogramPerimeter;whiteSpace=wrap;html=1;fixedSize=1;" vertex="1" parent="1">
          <mxGeometry x="272.5" y="80" width="195" height="60" as="geometry" />
        </mxCell>
        <mxCell id="X_bwyAX8eqqR_9mY6h3H-7" value="" style="edgeStyle=orthogonalEdgeStyle;rounded=0;orthogonalLoop=1;jettySize=auto;html=1;" edge="1" parent="1" source="X_bwyAX8eqqR_9mY6h3H-4" target="X_bwyAX8eqqR_9mY6h3H-6">
          <mxGeometry relative="1" as="geometry" />
        </mxCell>
        <mxCell id="X_bwyAX8eqqR_9mY6h3H-4" value="index = 0" style="whiteSpace=wrap;html=1;" vertex="1" parent="1">
          <mxGeometry x="310" y="170" width="120" height="20" as="geometry" />
        </mxCell>
        <mxCell id="X_bwyAX8eqqR_9mY6h3H-9" value="" style="edgeStyle=orthogonalEdgeStyle;rounded=0;orthogonalLoop=1;jettySize=auto;html=1;" edge="1" parent="1" source="X_bwyAX8eqqR_9mY6h3H-6" target="X_bwyAX8eqqR_9mY6h3H-8">
          <mxGeometry relative="1" as="geometry" />
        </mxCell>
        <mxCell id="X_bwyAX8eqqR_9mY6h3H-14" value="" style="edgeStyle=orthogonalEdgeStyle;rounded=0;orthogonalLoop=1;jettySize=auto;html=1;" edge="1" parent="1" source="X_bwyAX8eqqR_9mY6h3H-6" target="X_bwyAX8eqqR_9mY6h3H-13">
          <mxGeometry relative="1" as="geometry" />
        </mxCell>
        <mxCell id="X_bwyAX8eqqR_9mY6h3H-6" value="index=array.lengh" style="rhombus;whiteSpace=wrap;html=1;" vertex="1" parent="1">
          <mxGeometry x="305" y="220" width="130" height="80" as="geometry" />
        </mxCell>
        <mxCell id="X_bwyAX8eqqR_9mY6h3H-11" value="" style="edgeStyle=orthogonalEdgeStyle;rounded=0;orthogonalLoop=1;jettySize=auto;html=1;" edge="1" parent="1" source="X_bwyAX8eqqR_9mY6h3H-8" target="X_bwyAX8eqqR_9mY6h3H-10">
          <mxGeometry relative="1" as="geometry" />
        </mxCell>
        <mxCell id="X_bwyAX8eqqR_9mY6h3H-8" value="print string new_array[]" style="shape=document;whiteSpace=wrap;html=1;boundedLbl=1;" vertex="1" parent="1">
          <mxGeometry x="480" y="220" width="120" height="80" as="geometry" />
        </mxCell>
        <mxCell id="X_bwyAX8eqqR_9mY6h3H-10" value="End" style="ellipse;whiteSpace=wrap;html=1;" vertex="1" parent="1">
          <mxGeometry x="630" y="240" width="80" height="40" as="geometry" />
        </mxCell>
        <mxCell id="X_bwyAX8eqqR_9mY6h3H-12" value="No" style="text;html=1;align=center;verticalAlign=middle;resizable=0;points=[];autosize=1;strokeColor=none;fillColor=none;" vertex="1" parent="1">
          <mxGeometry x="430" y="258" width="40" height="30" as="geometry" />
        </mxCell>
        <mxCell id="X_bwyAX8eqqR_9mY6h3H-16" value="" style="edgeStyle=orthogonalEdgeStyle;rounded=0;orthogonalLoop=1;jettySize=auto;html=1;" edge="1" parent="1" source="X_bwyAX8eqqR_9mY6h3H-13" target="X_bwyAX8eqqR_9mY6h3H-15">
          <mxGeometry relative="1" as="geometry" />
        </mxCell>
        <mxCell id="X_bwyAX8eqqR_9mY6h3H-19" value="" style="edgeStyle=orthogonalEdgeStyle;rounded=0;orthogonalLoop=1;jettySize=auto;html=1;" edge="1" parent="1" source="X_bwyAX8eqqR_9mY6h3H-13" target="X_bwyAX8eqqR_9mY6h3H-17">
          <mxGeometry relative="1" as="geometry" />
        </mxCell>
        <mxCell id="X_bwyAX8eqqR_9mY6h3H-13" value="array.lengh&amp;lt;=3" style="rhombus;whiteSpace=wrap;html=1;" vertex="1" parent="1">
          <mxGeometry x="305" y="338" width="130" height="80" as="geometry" />
        </mxCell>
        <mxCell id="X_bwyAX8eqqR_9mY6h3H-18" value="" style="edgeStyle=orthogonalEdgeStyle;rounded=0;orthogonalLoop=1;jettySize=auto;html=1;entryX=1;entryY=0.5;entryDx=0;entryDy=0;exitX=0.45;exitY=1.05;exitDx=0;exitDy=0;exitPerimeter=0;" edge="1" parent="1" source="X_bwyAX8eqqR_9mY6h3H-15" target="X_bwyAX8eqqR_9mY6h3H-17">
          <mxGeometry relative="1" as="geometry">
            <mxPoint x="620" y="485" as="sourcePoint" />
            <mxPoint x="520" y="560" as="targetPoint" />
            <Array as="points">
              <mxPoint x="540" y="411" />
              <mxPoint x="540" y="470" />
              <mxPoint x="530" y="470" />
              <mxPoint x="530" y="473" />
            </Array>
          </mxGeometry>
        </mxCell>
        <mxCell id="X_bwyAX8eqqR_9mY6h3H-15" value="new_array[]=array[I]" style="whiteSpace=wrap;html=1;" vertex="1" parent="1">
          <mxGeometry x="480" y="348" width="120" height="60" as="geometry" />
        </mxCell>
        <mxCell id="X_bwyAX8eqqR_9mY6h3H-22" style="edgeStyle=orthogonalEdgeStyle;rounded=0;orthogonalLoop=1;jettySize=auto;html=1;entryX=0;entryY=0.5;entryDx=0;entryDy=0;exitX=0;exitY=0.5;exitDx=0;exitDy=0;" edge="1" parent="1" source="X_bwyAX8eqqR_9mY6h3H-17" target="X_bwyAX8eqqR_9mY6h3H-6">
          <mxGeometry relative="1" as="geometry">
            <Array as="points">
              <mxPoint x="330" y="470" />
              <mxPoint x="285" y="470" />
              <mxPoint x="285" y="260" />
            </Array>
          </mxGeometry>
        </mxCell>
        <mxCell id="X_bwyAX8eqqR_9mY6h3H-17" value="index++" style="whiteSpace=wrap;html=1;" vertex="1" parent="1">
          <mxGeometry x="330" y="450" width="80" height="45" as="geometry" />
        </mxCell>
        <mxCell id="X_bwyAX8eqqR_9mY6h3H-20" value="Yes" style="text;html=1;align=center;verticalAlign=middle;resizable=0;points=[];autosize=1;strokeColor=none;fillColor=none;" vertex="1" parent="1">
          <mxGeometry x="430" y="348" width="40" height="30" as="geometry" />
        </mxCell>
        <mxCell id="X_bwyAX8eqqR_9mY6h3H-21" value="No" style="text;html=1;align=center;verticalAlign=middle;resizable=0;points=[];autosize=1;strokeColor=none;fillColor=none;" vertex="1" parent="1">
          <mxGeometry x="370" y="420" width="40" height="30" as="geometry" />
        </mxCell>
        <mxCell id="X_bwyAX8eqqR_9mY6h3H-23" value="Yes" style="text;html=1;align=center;verticalAlign=middle;resizable=0;points=[];autosize=1;strokeColor=none;fillColor=none;" vertex="1" parent="1">
          <mxGeometry x="370" y="300" width="40" height="30" as="geometry" />
        </mxCell>
      </root>
    </mxGraphModel>
  </diagram>
</mxfile>
